<mxfile host="app.diagrams.net" modified="2024-04-01T08:36:55.292Z" agent="Mozilla/5.0 (Windows NT 10.0; Win64; x64) AppleWebKit/537.36 (KHTML, like Gecko) Chrome/123.0.0.0 Safari/537.36" etag="rHC09UTBNRwbQPUmmCgI" version="24.2.1" type="device">
  <diagram name="페이지-1" id="-M4VH1MH0WRjZSL7_aM0">
    <mxGraphModel dx="1434" dy="780" grid="1" gridSize="10" guides="1" tooltips="1" connect="1" arrows="1" fold="1" page="1" pageScale="1" pageWidth="827" pageHeight="1169" math="0" shadow="0">
      <root>
        <mxCell id="0" />
        <mxCell id="1" parent="0" />
        <mxCell id="K6s4A_WtRdNHZPaGLxeb-1" value="비회원" style="shape=umlActor;verticalLabelPosition=bottom;verticalAlign=top;html=1;outlineConnect=0;" vertex="1" parent="1">
          <mxGeometry x="70" y="190" width="30" height="60" as="geometry" />
        </mxCell>
        <mxCell id="K6s4A_WtRdNHZPaGLxeb-2" value="회원" style="shape=umlActor;verticalLabelPosition=bottom;verticalAlign=top;html=1;outlineConnect=0;fillColor=#f8cecc;strokeColor=#b85450;" vertex="1" parent="1">
          <mxGeometry x="70" y="500" width="30" height="60" as="geometry" />
        </mxCell>
        <mxCell id="K6s4A_WtRdNHZPaGLxeb-4" value="콘텐츠 관리자" style="shape=umlActor;verticalLabelPosition=bottom;verticalAlign=top;html=1;outlineConnect=0;fillColor=#dae8fc;strokeColor=#6c8ebf;" vertex="1" parent="1">
          <mxGeometry x="1160" y="190" width="30" height="60" as="geometry" />
        </mxCell>
        <mxCell id="K6s4A_WtRdNHZPaGLxeb-5" value="" style="rounded=0;whiteSpace=wrap;html=1;" vertex="1" parent="1">
          <mxGeometry x="190" y="60" width="840" height="900" as="geometry" />
        </mxCell>
        <mxCell id="K6s4A_WtRdNHZPaGLxeb-6" value="&lt;b&gt;&lt;font color=&quot;#ff3333&quot; style=&quot;font-size: 16px;&quot;&gt;지역 소개&lt;/font&gt;&lt;/b&gt;" style="ellipse;whiteSpace=wrap;html=1;" vertex="1" parent="1">
          <mxGeometry x="530" y="190" width="140" height="60" as="geometry" />
        </mxCell>
        <mxCell id="K6s4A_WtRdNHZPaGLxeb-7" value="&lt;font style=&quot;font-size: 16px;&quot;&gt;유래&lt;/font&gt;" style="ellipse;whiteSpace=wrap;html=1;" vertex="1" parent="1">
          <mxGeometry x="410" y="100" width="110" height="40" as="geometry" />
        </mxCell>
        <mxCell id="K6s4A_WtRdNHZPaGLxeb-8" value="&lt;font style=&quot;font-size: 16px;&quot;&gt;시설안내&lt;/font&gt;" style="ellipse;whiteSpace=wrap;html=1;" vertex="1" parent="1">
          <mxGeometry x="545" y="100" width="110" height="40" as="geometry" />
        </mxCell>
        <mxCell id="K6s4A_WtRdNHZPaGLxeb-9" value="&lt;span style=&quot;font-size: 16px;&quot;&gt;오시는길&lt;/span&gt;" style="ellipse;whiteSpace=wrap;html=1;" vertex="1" parent="1">
          <mxGeometry x="680" y="100" width="110" height="40" as="geometry" />
        </mxCell>
        <mxCell id="K6s4A_WtRdNHZPaGLxeb-14" value="" style="endArrow=classic;html=1;rounded=0;exitX=0.5;exitY=1;exitDx=0;exitDy=0;entryX=0.5;entryY=0;entryDx=0;entryDy=0;" edge="1" parent="1" source="K6s4A_WtRdNHZPaGLxeb-7" target="K6s4A_WtRdNHZPaGLxeb-6">
          <mxGeometry width="50" height="50" relative="1" as="geometry">
            <mxPoint x="345" y="240" as="sourcePoint" />
            <mxPoint x="395" y="190" as="targetPoint" />
          </mxGeometry>
        </mxCell>
        <mxCell id="K6s4A_WtRdNHZPaGLxeb-15" value="" style="endArrow=classic;html=1;rounded=0;exitX=0.5;exitY=1;exitDx=0;exitDy=0;entryX=0.5;entryY=0;entryDx=0;entryDy=0;" edge="1" parent="1" source="K6s4A_WtRdNHZPaGLxeb-8" target="K6s4A_WtRdNHZPaGLxeb-6">
          <mxGeometry width="50" height="50" relative="1" as="geometry">
            <mxPoint x="430" y="140" as="sourcePoint" />
            <mxPoint x="565" y="190" as="targetPoint" />
          </mxGeometry>
        </mxCell>
        <mxCell id="K6s4A_WtRdNHZPaGLxeb-16" value="" style="endArrow=classic;html=1;rounded=0;exitX=0.5;exitY=1;exitDx=0;exitDy=0;entryX=0.5;entryY=0;entryDx=0;entryDy=0;" edge="1" parent="1" source="K6s4A_WtRdNHZPaGLxeb-9" target="K6s4A_WtRdNHZPaGLxeb-6">
          <mxGeometry width="50" height="50" relative="1" as="geometry">
            <mxPoint x="480" y="150" as="sourcePoint" />
            <mxPoint x="615" y="200" as="targetPoint" />
          </mxGeometry>
        </mxCell>
        <mxCell id="K6s4A_WtRdNHZPaGLxeb-17" value="&amp;lt;&amp;lt;include&amp;gt;&amp;gt;" style="text;html=1;align=center;verticalAlign=middle;whiteSpace=wrap;rounded=0;" vertex="1" parent="1">
          <mxGeometry x="590" y="140" width="90" height="30" as="geometry" />
        </mxCell>
        <mxCell id="K6s4A_WtRdNHZPaGLxeb-18" value="&amp;lt;&amp;lt;include&amp;gt;&amp;gt;" style="text;html=1;align=center;verticalAlign=middle;whiteSpace=wrap;rounded=0;rotation=20;" vertex="1" parent="1">
          <mxGeometry x="470" y="160" width="90" height="30" as="geometry" />
        </mxCell>
        <mxCell id="K6s4A_WtRdNHZPaGLxeb-20" value="&amp;lt;&amp;lt;include&amp;gt;&amp;gt;" style="text;html=1;align=center;verticalAlign=middle;whiteSpace=wrap;rounded=0;rotation=-20;" vertex="1" parent="1">
          <mxGeometry x="640" y="160" width="90" height="30" as="geometry" />
        </mxCell>
        <mxCell id="K6s4A_WtRdNHZPaGLxeb-21" value="&lt;span style=&quot;font-size: 16px;&quot;&gt;내용 수정&lt;/span&gt;" style="ellipse;whiteSpace=wrap;html=1;" vertex="1" parent="1">
          <mxGeometry x="800" y="200" width="110" height="40" as="geometry" />
        </mxCell>
        <mxCell id="K6s4A_WtRdNHZPaGLxeb-22" value="" style="endArrow=classic;html=1;rounded=0;entryX=1;entryY=0.5;entryDx=0;entryDy=0;" edge="1" parent="1" source="K6s4A_WtRdNHZPaGLxeb-4" target="K6s4A_WtRdNHZPaGLxeb-21">
          <mxGeometry width="50" height="50" relative="1" as="geometry">
            <mxPoint x="860" y="290" as="sourcePoint" />
            <mxPoint x="910" y="240" as="targetPoint" />
          </mxGeometry>
        </mxCell>
        <mxCell id="K6s4A_WtRdNHZPaGLxeb-23" value="&amp;lt;&amp;lt;extend&amp;gt;&amp;gt;" style="text;html=1;align=center;verticalAlign=middle;whiteSpace=wrap;rounded=0;rotation=0;" vertex="1" parent="1">
          <mxGeometry x="690" y="190" width="90" height="30" as="geometry" />
        </mxCell>
        <mxCell id="K6s4A_WtRdNHZPaGLxeb-25" value="" style="endArrow=classic;html=1;rounded=0;exitX=1;exitY=0.5;exitDx=0;exitDy=0;entryX=0;entryY=0.5;entryDx=0;entryDy=0;" edge="1" parent="1" source="K6s4A_WtRdNHZPaGLxeb-6" target="K6s4A_WtRdNHZPaGLxeb-21">
          <mxGeometry width="50" height="50" relative="1" as="geometry">
            <mxPoint x="540" y="290" as="sourcePoint" />
            <mxPoint x="590" y="240" as="targetPoint" />
          </mxGeometry>
        </mxCell>
        <mxCell id="K6s4A_WtRdNHZPaGLxeb-26" value="" style="endArrow=classic;html=1;rounded=0;entryX=0;entryY=0.5;entryDx=0;entryDy=0;" edge="1" parent="1" source="K6s4A_WtRdNHZPaGLxeb-1" target="K6s4A_WtRdNHZPaGLxeb-6">
          <mxGeometry width="50" height="50" relative="1" as="geometry">
            <mxPoint x="670" y="420" as="sourcePoint" />
            <mxPoint x="720" y="370" as="targetPoint" />
          </mxGeometry>
        </mxCell>
        <mxCell id="K6s4A_WtRdNHZPaGLxeb-27" value="&lt;font color=&quot;#ff3333&quot;&gt;&lt;span style=&quot;font-size: 16px;&quot;&gt;&lt;b&gt;이용 안내&lt;/b&gt;&lt;/span&gt;&lt;/font&gt;" style="ellipse;whiteSpace=wrap;html=1;" vertex="1" parent="1">
          <mxGeometry x="530" y="410" width="140" height="60" as="geometry" />
        </mxCell>
        <mxCell id="K6s4A_WtRdNHZPaGLxeb-28" value="&lt;span style=&quot;font-size: 16px;&quot;&gt;교통편 안내&lt;/span&gt;" style="ellipse;whiteSpace=wrap;html=1;" vertex="1" parent="1">
          <mxGeometry x="260" y="310" width="110" height="40" as="geometry" />
        </mxCell>
        <mxCell id="K6s4A_WtRdNHZPaGLxeb-29" value="&lt;span style=&quot;font-size: 16px;&quot;&gt;주요 빌딩&lt;/span&gt;" style="ellipse;whiteSpace=wrap;html=1;" vertex="1" parent="1">
          <mxGeometry x="395" y="310" width="110" height="40" as="geometry" />
        </mxCell>
        <mxCell id="K6s4A_WtRdNHZPaGLxeb-30" value="&lt;span style=&quot;font-size: 16px;&quot;&gt;주요 협회&lt;/span&gt;" style="ellipse;whiteSpace=wrap;html=1;" vertex="1" parent="1">
          <mxGeometry x="545" y="310" width="110" height="40" as="geometry" />
        </mxCell>
        <mxCell id="K6s4A_WtRdNHZPaGLxeb-31" value="&lt;span style=&quot;font-size: 16px;&quot;&gt;맛집 안내&lt;/span&gt;" style="ellipse;whiteSpace=wrap;html=1;" vertex="1" parent="1">
          <mxGeometry x="690" y="310" width="110" height="40" as="geometry" />
        </mxCell>
        <mxCell id="K6s4A_WtRdNHZPaGLxeb-32" value="&lt;span style=&quot;font-size: 16px;&quot;&gt;숙박 시설&lt;/span&gt;" style="ellipse;whiteSpace=wrap;html=1;" vertex="1" parent="1">
          <mxGeometry x="840" y="310" width="110" height="40" as="geometry" />
        </mxCell>
        <mxCell id="K6s4A_WtRdNHZPaGLxeb-36" value="" style="endArrow=classic;html=1;rounded=0;entryX=0.5;entryY=0;entryDx=0;entryDy=0;exitX=0.5;exitY=1;exitDx=0;exitDy=0;" edge="1" parent="1" source="K6s4A_WtRdNHZPaGLxeb-28" target="K6s4A_WtRdNHZPaGLxeb-27">
          <mxGeometry width="50" height="50" relative="1" as="geometry">
            <mxPoint x="389" y="440" as="sourcePoint" />
            <mxPoint x="439" y="390" as="targetPoint" />
          </mxGeometry>
        </mxCell>
        <mxCell id="K6s4A_WtRdNHZPaGLxeb-37" value="" style="endArrow=classic;html=1;rounded=0;entryX=0.5;entryY=0;entryDx=0;entryDy=0;exitX=0.5;exitY=1;exitDx=0;exitDy=0;" edge="1" parent="1" source="K6s4A_WtRdNHZPaGLxeb-29" target="K6s4A_WtRdNHZPaGLxeb-27">
          <mxGeometry width="50" height="50" relative="1" as="geometry">
            <mxPoint x="670" y="420" as="sourcePoint" />
            <mxPoint x="720" y="370" as="targetPoint" />
          </mxGeometry>
        </mxCell>
        <mxCell id="K6s4A_WtRdNHZPaGLxeb-38" value="" style="endArrow=classic;html=1;rounded=0;entryX=0.5;entryY=0;entryDx=0;entryDy=0;exitX=0.5;exitY=1;exitDx=0;exitDy=0;" edge="1" parent="1" source="K6s4A_WtRdNHZPaGLxeb-30" target="K6s4A_WtRdNHZPaGLxeb-27">
          <mxGeometry width="50" height="50" relative="1" as="geometry">
            <mxPoint x="670" y="420" as="sourcePoint" />
            <mxPoint x="720" y="370" as="targetPoint" />
          </mxGeometry>
        </mxCell>
        <mxCell id="K6s4A_WtRdNHZPaGLxeb-39" value="" style="endArrow=classic;html=1;rounded=0;exitX=0.5;exitY=1;exitDx=0;exitDy=0;" edge="1" parent="1" source="K6s4A_WtRdNHZPaGLxeb-31">
          <mxGeometry width="50" height="50" relative="1" as="geometry">
            <mxPoint x="670" y="420" as="sourcePoint" />
            <mxPoint x="600" y="410" as="targetPoint" />
          </mxGeometry>
        </mxCell>
        <mxCell id="K6s4A_WtRdNHZPaGLxeb-40" value="" style="endArrow=classic;html=1;rounded=0;exitX=0.5;exitY=1;exitDx=0;exitDy=0;entryX=0.5;entryY=0;entryDx=0;entryDy=0;" edge="1" parent="1" source="K6s4A_WtRdNHZPaGLxeb-32" target="K6s4A_WtRdNHZPaGLxeb-27">
          <mxGeometry width="50" height="50" relative="1" as="geometry">
            <mxPoint x="670" y="420" as="sourcePoint" />
            <mxPoint x="720" y="370" as="targetPoint" />
          </mxGeometry>
        </mxCell>
        <mxCell id="K6s4A_WtRdNHZPaGLxeb-41" value="&amp;lt;&amp;lt;include&amp;gt;&amp;gt;" style="text;html=1;align=center;verticalAlign=middle;whiteSpace=wrap;rounded=0;rotation=10;" vertex="1" parent="1">
          <mxGeometry x="390" y="380" width="90" height="30" as="geometry" />
        </mxCell>
        <mxCell id="K6s4A_WtRdNHZPaGLxeb-42" value="&amp;lt;&amp;lt;include&amp;gt;&amp;gt;" style="text;html=1;align=center;verticalAlign=middle;whiteSpace=wrap;rounded=0;rotation=20;" vertex="1" parent="1">
          <mxGeometry x="480" y="350" width="90" height="30" as="geometry" />
        </mxCell>
        <mxCell id="K6s4A_WtRdNHZPaGLxeb-43" value="&amp;lt;&amp;lt;include&amp;gt;&amp;gt;" style="text;html=1;align=center;verticalAlign=middle;whiteSpace=wrap;rounded=0;rotation=0;" vertex="1" parent="1">
          <mxGeometry x="590" y="360" width="90" height="30" as="geometry" />
        </mxCell>
        <mxCell id="K6s4A_WtRdNHZPaGLxeb-44" value="&amp;lt;&amp;lt;include&amp;gt;&amp;gt;" style="text;html=1;align=center;verticalAlign=middle;whiteSpace=wrap;rounded=0;rotation=-25;" vertex="1" parent="1">
          <mxGeometry x="680" y="360" width="90" height="30" as="geometry" />
        </mxCell>
        <mxCell id="K6s4A_WtRdNHZPaGLxeb-45" value="&amp;lt;&amp;lt;include&amp;gt;&amp;gt;" style="text;html=1;align=center;verticalAlign=middle;whiteSpace=wrap;rounded=0;rotation=-10;" vertex="1" parent="1">
          <mxGeometry x="760" y="375" width="90" height="30" as="geometry" />
        </mxCell>
        <mxCell id="K6s4A_WtRdNHZPaGLxeb-46" value="&lt;span style=&quot;font-size: 16px;&quot;&gt;내용 수정&lt;/span&gt;" style="ellipse;whiteSpace=wrap;html=1;" vertex="1" parent="1">
          <mxGeometry x="800" y="420" width="110" height="40" as="geometry" />
        </mxCell>
        <mxCell id="K6s4A_WtRdNHZPaGLxeb-47" value="" style="endArrow=classic;html=1;rounded=0;exitX=1;exitY=0.5;exitDx=0;exitDy=0;entryX=0;entryY=0.5;entryDx=0;entryDy=0;" edge="1" parent="1" source="K6s4A_WtRdNHZPaGLxeb-27" target="K6s4A_WtRdNHZPaGLxeb-46">
          <mxGeometry width="50" height="50" relative="1" as="geometry">
            <mxPoint x="670" y="420" as="sourcePoint" />
            <mxPoint x="720" y="370" as="targetPoint" />
          </mxGeometry>
        </mxCell>
        <mxCell id="K6s4A_WtRdNHZPaGLxeb-48" value="" style="endArrow=classic;html=1;rounded=0;entryX=1;entryY=0.5;entryDx=0;entryDy=0;" edge="1" parent="1" target="K6s4A_WtRdNHZPaGLxeb-46">
          <mxGeometry width="50" height="50" relative="1" as="geometry">
            <mxPoint x="1160" y="220" as="sourcePoint" />
            <mxPoint x="720" y="370" as="targetPoint" />
          </mxGeometry>
        </mxCell>
        <mxCell id="K6s4A_WtRdNHZPaGLxeb-50" value="&amp;lt;&amp;lt;extend&amp;gt;&amp;gt;" style="text;html=1;align=center;verticalAlign=middle;whiteSpace=wrap;rounded=0;rotation=0;" vertex="1" parent="1">
          <mxGeometry x="690" y="410" width="90" height="30" as="geometry" />
        </mxCell>
        <mxCell id="K6s4A_WtRdNHZPaGLxeb-51" value="&lt;font color=&quot;#ff3333&quot;&gt;&lt;span style=&quot;font-size: 16px;&quot;&gt;&lt;b&gt;공지 사항&lt;/b&gt;&lt;/span&gt;&lt;/font&gt;" style="ellipse;whiteSpace=wrap;html=1;" vertex="1" parent="1">
          <mxGeometry x="530" y="620" width="140" height="60" as="geometry" />
        </mxCell>
        <mxCell id="K6s4A_WtRdNHZPaGLxeb-52" value="&lt;span style=&quot;font-size: 16px;&quot;&gt;목록 보기&lt;/span&gt;" style="ellipse;whiteSpace=wrap;html=1;" vertex="1" parent="1">
          <mxGeometry x="300" y="440" width="110" height="40" as="geometry" />
        </mxCell>
        <mxCell id="K6s4A_WtRdNHZPaGLxeb-53" value="" style="endArrow=classic;html=1;rounded=0;entryX=0.5;entryY=0;entryDx=0;entryDy=0;" edge="1" parent="1" target="K6s4A_WtRdNHZPaGLxeb-52">
          <mxGeometry width="50" height="50" relative="1" as="geometry">
            <mxPoint x="100" y="220" as="sourcePoint" />
            <mxPoint x="720" y="370" as="targetPoint" />
          </mxGeometry>
        </mxCell>
        <mxCell id="K6s4A_WtRdNHZPaGLxeb-54" value="" style="endArrow=classic;html=1;rounded=0;exitX=0.5;exitY=0;exitDx=0;exitDy=0;exitPerimeter=0;" edge="1" parent="1">
          <mxGeometry width="50" height="50" relative="1" as="geometry">
            <mxPoint x="85" y="490" as="sourcePoint" />
            <mxPoint x="85" y="280" as="targetPoint" />
          </mxGeometry>
        </mxCell>
        <mxCell id="K6s4A_WtRdNHZPaGLxeb-55" value="&lt;span style=&quot;font-size: 16px;&quot;&gt;&lt;b&gt;로그인&lt;/b&gt;&lt;/span&gt;" style="ellipse;whiteSpace=wrap;html=1;" vertex="1" parent="1">
          <mxGeometry x="220" y="690" width="110" height="40" as="geometry" />
        </mxCell>
        <mxCell id="K6s4A_WtRdNHZPaGLxeb-56" value="&lt;span style=&quot;font-size: 16px;&quot;&gt;&lt;b&gt;회원 가입&lt;/b&gt;&lt;/span&gt;" style="ellipse;whiteSpace=wrap;html=1;" vertex="1" parent="1">
          <mxGeometry x="210" y="550" width="110" height="40" as="geometry" />
        </mxCell>
        <mxCell id="K6s4A_WtRdNHZPaGLxeb-57" value="&lt;font color=&quot;#ff3333&quot;&gt;&lt;span style=&quot;font-size: 16px;&quot;&gt;&lt;b&gt;회원&lt;/b&gt;&lt;/span&gt;&lt;/font&gt;" style="ellipse;whiteSpace=wrap;html=1;" vertex="1" parent="1">
          <mxGeometry x="370" y="740" width="140" height="60" as="geometry" />
        </mxCell>
        <mxCell id="K6s4A_WtRdNHZPaGLxeb-58" value="" style="endArrow=classic;html=1;rounded=0;entryX=0;entryY=0.5;entryDx=0;entryDy=0;" edge="1" parent="1" target="K6s4A_WtRdNHZPaGLxeb-56">
          <mxGeometry width="50" height="50" relative="1" as="geometry">
            <mxPoint x="100" y="220" as="sourcePoint" />
            <mxPoint x="210" y="460" as="targetPoint" />
          </mxGeometry>
        </mxCell>
        <mxCell id="K6s4A_WtRdNHZPaGLxeb-59" value="" style="endArrow=classic;html=1;rounded=0;entryX=0;entryY=0.5;entryDx=0;entryDy=0;" edge="1" parent="1" source="K6s4A_WtRdNHZPaGLxeb-2" target="K6s4A_WtRdNHZPaGLxeb-55">
          <mxGeometry width="50" height="50" relative="1" as="geometry">
            <mxPoint x="450" y="520" as="sourcePoint" />
            <mxPoint x="500" y="470" as="targetPoint" />
          </mxGeometry>
        </mxCell>
        <mxCell id="K6s4A_WtRdNHZPaGLxeb-61" value="&lt;span style=&quot;font-size: 16px;&quot;&gt;상세 보기&lt;/span&gt;" style="ellipse;whiteSpace=wrap;html=1;" vertex="1" parent="1">
          <mxGeometry x="450" y="480" width="110" height="40" as="geometry" />
        </mxCell>
        <mxCell id="K6s4A_WtRdNHZPaGLxeb-63" value="&lt;span style=&quot;font-size: 16px;&quot;&gt;&lt;font color=&quot;#0000ff&quot;&gt;글 수정&lt;/font&gt;&lt;/span&gt;" style="ellipse;whiteSpace=wrap;html=1;" vertex="1" parent="1">
          <mxGeometry x="545" y="530" width="110" height="40" as="geometry" />
        </mxCell>
        <mxCell id="K6s4A_WtRdNHZPaGLxeb-64" value="&lt;span style=&quot;font-size: 16px;&quot;&gt;&lt;font color=&quot;#0000ff&quot;&gt;글 등록&lt;/font&gt;&lt;/span&gt;" style="ellipse;whiteSpace=wrap;html=1;" vertex="1" parent="1">
          <mxGeometry x="680" y="530" width="110" height="40" as="geometry" />
        </mxCell>
        <mxCell id="K6s4A_WtRdNHZPaGLxeb-66" value="&lt;span style=&quot;font-size: 16px;&quot;&gt;&lt;font color=&quot;#0000ff&quot;&gt;글 삭제&lt;/font&gt;&lt;/span&gt;" style="ellipse;whiteSpace=wrap;html=1;" vertex="1" parent="1">
          <mxGeometry x="820" y="530" width="110" height="40" as="geometry" />
        </mxCell>
        <mxCell id="K6s4A_WtRdNHZPaGLxeb-68" value="" style="endArrow=classic;html=1;rounded=0;exitX=0.5;exitY=1;exitDx=0;exitDy=0;entryX=0.5;entryY=0;entryDx=0;entryDy=0;" edge="1" parent="1" source="K6s4A_WtRdNHZPaGLxeb-52" target="K6s4A_WtRdNHZPaGLxeb-51">
          <mxGeometry width="50" height="50" relative="1" as="geometry">
            <mxPoint x="670" y="520" as="sourcePoint" />
            <mxPoint x="720" y="470" as="targetPoint" />
          </mxGeometry>
        </mxCell>
        <mxCell id="K6s4A_WtRdNHZPaGLxeb-69" value="" style="endArrow=classic;html=1;rounded=0;exitX=0.5;exitY=1;exitDx=0;exitDy=0;" edge="1" parent="1" source="K6s4A_WtRdNHZPaGLxeb-63">
          <mxGeometry width="50" height="50" relative="1" as="geometry">
            <mxPoint x="670" y="520" as="sourcePoint" />
            <mxPoint x="600" y="620" as="targetPoint" />
          </mxGeometry>
        </mxCell>
        <mxCell id="K6s4A_WtRdNHZPaGLxeb-70" value="" style="endArrow=classic;html=1;rounded=0;exitX=0.5;exitY=1;exitDx=0;exitDy=0;entryX=0.5;entryY=0;entryDx=0;entryDy=0;" edge="1" parent="1" source="K6s4A_WtRdNHZPaGLxeb-64" target="K6s4A_WtRdNHZPaGLxeb-51">
          <mxGeometry width="50" height="50" relative="1" as="geometry">
            <mxPoint x="670" y="520" as="sourcePoint" />
            <mxPoint x="720" y="470" as="targetPoint" />
          </mxGeometry>
        </mxCell>
        <mxCell id="K6s4A_WtRdNHZPaGLxeb-71" value="" style="endArrow=classic;html=1;rounded=0;exitX=0.5;exitY=1;exitDx=0;exitDy=0;entryX=0.5;entryY=0;entryDx=0;entryDy=0;" edge="1" parent="1" source="K6s4A_WtRdNHZPaGLxeb-66" target="K6s4A_WtRdNHZPaGLxeb-51">
          <mxGeometry width="50" height="50" relative="1" as="geometry">
            <mxPoint x="670" y="520" as="sourcePoint" />
            <mxPoint x="720" y="470" as="targetPoint" />
          </mxGeometry>
        </mxCell>
        <mxCell id="K6s4A_WtRdNHZPaGLxeb-77" value="" style="endArrow=classic;html=1;rounded=0;exitX=0.5;exitY=1;exitDx=0;exitDy=0;entryX=0.5;entryY=0;entryDx=0;entryDy=0;" edge="1" parent="1" source="K6s4A_WtRdNHZPaGLxeb-61" target="K6s4A_WtRdNHZPaGLxeb-51">
          <mxGeometry width="50" height="50" relative="1" as="geometry">
            <mxPoint x="670" y="620" as="sourcePoint" />
            <mxPoint x="720" y="570" as="targetPoint" />
          </mxGeometry>
        </mxCell>
        <mxCell id="K6s4A_WtRdNHZPaGLxeb-78" value="" style="endArrow=classic;html=1;rounded=0;exitX=1;exitY=0.5;exitDx=0;exitDy=0;entryX=0.5;entryY=0;entryDx=0;entryDy=0;" edge="1" parent="1" source="K6s4A_WtRdNHZPaGLxeb-56" target="K6s4A_WtRdNHZPaGLxeb-57">
          <mxGeometry width="50" height="50" relative="1" as="geometry">
            <mxPoint x="390" y="635" as="sourcePoint" />
            <mxPoint x="440" y="585" as="targetPoint" />
          </mxGeometry>
        </mxCell>
        <mxCell id="K6s4A_WtRdNHZPaGLxeb-79" value="" style="endArrow=classic;html=1;rounded=0;exitX=1;exitY=0.5;exitDx=0;exitDy=0;entryX=0.5;entryY=0;entryDx=0;entryDy=0;" edge="1" parent="1" source="K6s4A_WtRdNHZPaGLxeb-55" target="K6s4A_WtRdNHZPaGLxeb-57">
          <mxGeometry width="50" height="50" relative="1" as="geometry">
            <mxPoint x="425" y="650" as="sourcePoint" />
            <mxPoint x="475" y="600" as="targetPoint" />
          </mxGeometry>
        </mxCell>
        <mxCell id="K6s4A_WtRdNHZPaGLxeb-81" value="&lt;span style=&quot;font-size: 16px;&quot;&gt;탈퇴&lt;/span&gt;" style="ellipse;whiteSpace=wrap;html=1;" vertex="1" parent="1">
          <mxGeometry x="380" y="620" width="110" height="40" as="geometry" />
        </mxCell>
        <mxCell id="K6s4A_WtRdNHZPaGLxeb-82" value="" style="endArrow=classic;html=1;rounded=0;exitX=0.5;exitY=0;exitDx=0;exitDy=0;entryX=0.5;entryY=1;entryDx=0;entryDy=0;" edge="1" parent="1" source="K6s4A_WtRdNHZPaGLxeb-57" target="K6s4A_WtRdNHZPaGLxeb-81">
          <mxGeometry width="50" height="50" relative="1" as="geometry">
            <mxPoint x="690" y="710" as="sourcePoint" />
            <mxPoint x="740" y="660" as="targetPoint" />
          </mxGeometry>
        </mxCell>
        <mxCell id="K6s4A_WtRdNHZPaGLxeb-83" value="" style="endArrow=classic;html=1;rounded=0;exitX=0.5;exitY=0;exitDx=0;exitDy=0;" edge="1" parent="1" source="K6s4A_WtRdNHZPaGLxeb-81">
          <mxGeometry width="50" height="50" relative="1" as="geometry">
            <mxPoint x="670" y="620" as="sourcePoint" />
            <mxPoint x="110" y="270" as="targetPoint" />
            <Array as="points">
              <mxPoint x="310" y="500" />
            </Array>
          </mxGeometry>
        </mxCell>
        <mxCell id="K6s4A_WtRdNHZPaGLxeb-84" value="&lt;span style=&quot;font-size: 16px;&quot;&gt;정보수정&lt;/span&gt;" style="ellipse;whiteSpace=wrap;html=1;" vertex="1" parent="1">
          <mxGeometry x="220" y="620" width="110" height="40" as="geometry" />
        </mxCell>
        <mxCell id="K6s4A_WtRdNHZPaGLxeb-85" value="" style="endArrow=classic;html=1;rounded=0;exitX=0.457;exitY=0.033;exitDx=0;exitDy=0;exitPerimeter=0;entryX=1;entryY=0.5;entryDx=0;entryDy=0;" edge="1" parent="1" source="K6s4A_WtRdNHZPaGLxeb-57" target="K6s4A_WtRdNHZPaGLxeb-84">
          <mxGeometry width="50" height="50" relative="1" as="geometry">
            <mxPoint x="640" y="770" as="sourcePoint" />
            <mxPoint x="690" y="720" as="targetPoint" />
          </mxGeometry>
        </mxCell>
        <mxCell id="K6s4A_WtRdNHZPaGLxeb-86" value="" style="endArrow=classic;html=1;rounded=0;entryX=0;entryY=0;entryDx=0;entryDy=0;" edge="1" parent="1" target="K6s4A_WtRdNHZPaGLxeb-84">
          <mxGeometry width="50" height="50" relative="1" as="geometry">
            <mxPoint x="100" y="550" as="sourcePoint" />
            <mxPoint x="720" y="570" as="targetPoint" />
          </mxGeometry>
        </mxCell>
        <mxCell id="K6s4A_WtRdNHZPaGLxeb-87" value="&lt;span style=&quot;font-size: 16px;&quot;&gt;목록 보기&lt;/span&gt;" style="ellipse;whiteSpace=wrap;html=1;" vertex="1" parent="1">
          <mxGeometry x="570" y="720" width="110" height="40" as="geometry" />
        </mxCell>
        <mxCell id="K6s4A_WtRdNHZPaGLxeb-88" value="&lt;span style=&quot;font-size: 16px;&quot;&gt;상세 정보&lt;/span&gt;" style="ellipse;whiteSpace=wrap;html=1;" vertex="1" parent="1">
          <mxGeometry x="570" y="770" width="110" height="40" as="geometry" />
        </mxCell>
        <mxCell id="K6s4A_WtRdNHZPaGLxeb-89" value="" style="endArrow=classic;html=1;rounded=0;exitX=0;exitY=0.5;exitDx=0;exitDy=0;entryX=1;entryY=0.5;entryDx=0;entryDy=0;" edge="1" parent="1" source="K6s4A_WtRdNHZPaGLxeb-87" target="K6s4A_WtRdNHZPaGLxeb-57">
          <mxGeometry width="50" height="50" relative="1" as="geometry">
            <mxPoint x="480" y="730" as="sourcePoint" />
            <mxPoint x="530" y="680" as="targetPoint" />
          </mxGeometry>
        </mxCell>
        <mxCell id="K6s4A_WtRdNHZPaGLxeb-90" value="" style="endArrow=classic;html=1;rounded=0;exitX=0;exitY=0.5;exitDx=0;exitDy=0;entryX=1;entryY=0.5;entryDx=0;entryDy=0;" edge="1" parent="1" source="K6s4A_WtRdNHZPaGLxeb-88" target="K6s4A_WtRdNHZPaGLxeb-57">
          <mxGeometry width="50" height="50" relative="1" as="geometry">
            <mxPoint x="510" y="820" as="sourcePoint" />
            <mxPoint x="560" y="770" as="targetPoint" />
          </mxGeometry>
        </mxCell>
        <mxCell id="K6s4A_WtRdNHZPaGLxeb-93" value="회원글 관리자" style="shape=umlActor;verticalLabelPosition=bottom;verticalAlign=top;html=1;outlineConnect=0;fillColor=#dae8fc;strokeColor=#6c8ebf;" vertex="1" parent="1">
          <mxGeometry x="1170" y="660" width="30" height="60" as="geometry" />
        </mxCell>
        <mxCell id="K6s4A_WtRdNHZPaGLxeb-95" value="&lt;span style=&quot;font-size: 16px;&quot;&gt;&lt;b style=&quot;&quot;&gt;회원관리&lt;/b&gt;&lt;/span&gt;" style="ellipse;whiteSpace=wrap;html=1;fillColor=#ffe6cc;strokeColor=#d79b00;" vertex="1" parent="1">
          <mxGeometry x="740" y="740" width="140" height="60" as="geometry" />
        </mxCell>
        <mxCell id="K6s4A_WtRdNHZPaGLxeb-96" value="" style="endArrow=classic;html=1;rounded=0;entryX=0;entryY=0.5;entryDx=0;entryDy=0;" edge="1" parent="1" target="K6s4A_WtRdNHZPaGLxeb-95">
          <mxGeometry width="50" height="50" relative="1" as="geometry">
            <mxPoint x="680" y="740" as="sourcePoint" />
            <mxPoint x="730" y="690" as="targetPoint" />
          </mxGeometry>
        </mxCell>
        <mxCell id="K6s4A_WtRdNHZPaGLxeb-97" value="" style="endArrow=classic;html=1;rounded=0;exitX=1;exitY=0.5;exitDx=0;exitDy=0;" edge="1" parent="1" source="K6s4A_WtRdNHZPaGLxeb-88">
          <mxGeometry width="50" height="50" relative="1" as="geometry">
            <mxPoint x="760" y="690" as="sourcePoint" />
            <mxPoint x="740" y="770" as="targetPoint" />
          </mxGeometry>
        </mxCell>
        <mxCell id="K6s4A_WtRdNHZPaGLxeb-98" value="" style="endArrow=classic;html=1;rounded=0;entryX=1;entryY=0.5;entryDx=0;entryDy=0;" edge="1" parent="1" source="K6s4A_WtRdNHZPaGLxeb-93" target="K6s4A_WtRdNHZPaGLxeb-95">
          <mxGeometry width="50" height="50" relative="1" as="geometry">
            <mxPoint x="670" y="520" as="sourcePoint" />
            <mxPoint x="720" y="470" as="targetPoint" />
          </mxGeometry>
        </mxCell>
        <mxCell id="K6s4A_WtRdNHZPaGLxeb-100" value="&lt;span style=&quot;font-size: 16px;&quot;&gt;&lt;b style=&quot;&quot;&gt;글 관리&lt;/b&gt;&lt;/span&gt;" style="ellipse;whiteSpace=wrap;html=1;fillColor=#ffe6cc;strokeColor=#d79b00;" vertex="1" parent="1">
          <mxGeometry x="665" y="450" width="140" height="60" as="geometry" />
        </mxCell>
        <mxCell id="K6s4A_WtRdNHZPaGLxeb-101" value="" style="endArrow=classic;html=1;rounded=0;exitX=0.5;exitY=1;exitDx=0;exitDy=0;entryX=0.5;entryY=0;entryDx=0;entryDy=0;" edge="1" parent="1" source="K6s4A_WtRdNHZPaGLxeb-100" target="K6s4A_WtRdNHZPaGLxeb-63">
          <mxGeometry width="50" height="50" relative="1" as="geometry">
            <mxPoint x="670" y="520" as="sourcePoint" />
            <mxPoint x="720" y="470" as="targetPoint" />
          </mxGeometry>
        </mxCell>
        <mxCell id="K6s4A_WtRdNHZPaGLxeb-102" value="" style="endArrow=classic;html=1;rounded=0;exitX=0.5;exitY=1;exitDx=0;exitDy=0;entryX=0.5;entryY=0;entryDx=0;entryDy=0;" edge="1" parent="1" source="K6s4A_WtRdNHZPaGLxeb-100" target="K6s4A_WtRdNHZPaGLxeb-64">
          <mxGeometry width="50" height="50" relative="1" as="geometry">
            <mxPoint x="610" y="505" as="sourcePoint" />
            <mxPoint x="660" y="455" as="targetPoint" />
          </mxGeometry>
        </mxCell>
        <mxCell id="K6s4A_WtRdNHZPaGLxeb-103" value="" style="endArrow=classic;html=1;rounded=0;entryX=0.5;entryY=0;entryDx=0;entryDy=0;exitX=0.5;exitY=1;exitDx=0;exitDy=0;" edge="1" parent="1" source="K6s4A_WtRdNHZPaGLxeb-100" target="K6s4A_WtRdNHZPaGLxeb-66">
          <mxGeometry width="50" height="50" relative="1" as="geometry">
            <mxPoint x="670" y="520" as="sourcePoint" />
            <mxPoint x="720" y="470" as="targetPoint" />
          </mxGeometry>
        </mxCell>
        <mxCell id="K6s4A_WtRdNHZPaGLxeb-104" value="" style="endArrow=classic;html=1;rounded=0;entryX=1;entryY=0.5;entryDx=0;entryDy=0;" edge="1" parent="1" target="K6s4A_WtRdNHZPaGLxeb-100">
          <mxGeometry width="50" height="50" relative="1" as="geometry">
            <mxPoint x="1060" y="480" as="sourcePoint" />
            <mxPoint x="1110" y="430" as="targetPoint" />
          </mxGeometry>
        </mxCell>
        <mxCell id="K6s4A_WtRdNHZPaGLxeb-106" value="" style="endArrow=none;html=1;rounded=0;" edge="1" parent="1">
          <mxGeometry width="50" height="50" relative="1" as="geometry">
            <mxPoint x="1060" y="480" as="sourcePoint" />
            <mxPoint x="1160" y="220" as="targetPoint" />
          </mxGeometry>
        </mxCell>
      </root>
    </mxGraphModel>
  </diagram>
</mxfile>
